<svg xmlns="http://www.w3.org/2000/svg" xmlns:xlink="http://www.w3.org/1999/xlink" width="500" zoomAndPan="magnify" viewBox="0 0 375 374.999991" height="500" preserveAspectRatio="xMidYMid meet" version="1.0"><defs><g/><clipPath id="a10f0d9b18"><path d="M 80 156 L 118.164062 156 L 118.164062 204.535156 L 80 204.535156 Z M 80 156 " clip-rule="nonzero"/></clipPath><clipPath id="b2b0bed701"><path d="M 104.496094 190.246094 L 110.496094 190.246094 L 110.496094 196.246094 L 104.496094 196.246094 Z M 104.496094 190.246094 " clip-rule="nonzero"/></clipPath><clipPath id="0af868ead3"><path d="M 86.53125 162.242188 L 89.53125 162.242188 L 89.53125 165.242188 L 86.53125 165.242188 Z M 86.53125 162.242188 " clip-rule="nonzero"/></clipPath></defs><g clip-path="url(#a10f0d9b18)"><path fill="#6f34fe" d="M 100.878906 202.410156 C 100.855469 201.230469 101.78125 200.25 102.945312 200.226562 L 106.160156 200.15625 C 110.339844 200.15625 113.75 196.742188 113.820312 192.515625 C 113.890625 188.167969 110.292969 184.609375 106.007812 184.609375 L 104.125 184.609375 L 97.757812 199.4375 C 96.425781 202.535156 93.105469 204.230469 89.859375 203.472656 C 87.949219 203.023438 86.308594 201.761719 85.363281 200.019531 C 84.414062 198.273438 84.246094 196.195312 84.894531 194.3125 L 84.9375 194.203125 L 89.207031 183.753906 C 89.945312 181.699219 91.875 180.324219 94.035156 180.324219 L 101.359375 180.324219 L 107.882812 165.132812 C 108.195312 164.410156 108.222656 163.582031 107.902344 162.863281 C 107.582031 162.144531 106.996094 161.621094 106.257812 161.386719 C 104.933594 160.972656 103.496094 161.667969 102.984375 162.976562 L 99.085938 172.9375 C 98.292969 174.957031 96.78125 176.554688 94.824219 177.4375 C 92.777344 178.359375 90.511719 178.394531 88.4375 177.53125 C 86.367188 176.671875 84.769531 175.035156 83.949219 172.921875 L 81.300781 166.117188 C 79.9375 162.613281 81.625 158.605469 85.0625 157.183594 C 88.457031 155.777344 92.410156 157.410156 93.875 160.820312 L 95.527344 164.660156 C 95.992188 165.742188 95.507812 167.003906 94.4375 167.480469 C 93.371094 167.953125 92.128906 167.457031 91.660156 166.375 L 90.003906 162.535156 C 89.449219 161.234375 87.945312 160.613281 86.65625 161.148438 C 85.351562 161.6875 84.710938 163.210938 85.226562 164.542969 L 87.875 171.347656 C 88.359375 172.59375 89.402344 173.5 90.742188 173.789062 C 91.230469 173.898438 91.738281 173.902344 92.226562 173.804688 C 93.59375 173.535156 94.671875 172.617188 95.164062 171.355469 L 99.0625 161.394531 C 100.382812 158.023438 104.089844 156.226562 107.503906 157.296875 C 109.375 157.882812 110.914062 159.257812 111.730469 161.0625 C 112.546875 162.867188 112.566406 164.949219 111.785156 166.769531 L 105.964844 180.324219 L 105.980469 180.324219 C 112.496094 180.324219 117.933594 185.574219 118.039062 192.1875 C 118.144531 198.917969 112.789062 204.425781 106.183594 204.441406 L 103.035156 204.507812 C 101.867188 204.53125 100.902344 203.59375 100.878906 202.410156 Z M 88.859375 195.777344 C 88.621094 196.507812 88.691406 197.277344 89.058594 197.953125 C 89.433594 198.640625 90.054688 199.121094 90.8125 199.296875 C 92.078125 199.59375 93.371094 198.933594 93.890625 197.726562 L 99.523438 184.605469 L 94.03125 184.605469 C 93.644531 184.605469 93.292969 184.859375 93.164062 185.230469 L 93.121094 185.34375 Z M 88.859375 195.777344 " fill-opacity="1" fill-rule="nonzero"/></g><g clip-path="url(#b2b0bed701)"><path fill="#b6c4ef" d="M 107.496094 190.246094 C 105.839844 190.246094 104.496094 191.589844 104.496094 193.246094 C 104.496094 194.902344 105.839844 196.246094 107.496094 196.246094 C 109.152344 196.246094 110.496094 194.902344 110.496094 193.246094 C 110.496094 191.589844 109.152344 190.246094 107.496094 190.246094 " fill-opacity="1" fill-rule="nonzero"/></g><g fill="#faad3e" fill-opacity="1"><g transform="translate(120.914664, 192.264876)"><g><path d="M 19.265625 -20.375 L 12.21875 -6.734375 L 12.21875 0 L 7.25 0 L 7.25 -6.734375 L 0.203125 -20.375 L 5.828125 -20.375 L 9.78125 -11.84375 L 13.703125 -20.375 Z M 19.265625 -20.375 "/></g></g></g><g fill="#faad3e" fill-opacity="1"><g transform="translate(140.383566, 192.264876)"><g><path d="M 0.8125 -8.125 C 0.8125 -9.789062 1.125 -11.25 1.75 -12.5 C 2.382812 -13.757812 3.242188 -14.726562 4.328125 -15.40625 C 5.410156 -16.082031 6.617188 -16.421875 7.953125 -16.421875 C 9.085938 -16.421875 10.085938 -16.1875 10.953125 -15.71875 C 11.816406 -15.257812 12.476562 -14.65625 12.9375 -13.90625 L 12.9375 -16.1875 L 17.90625 -16.1875 L 17.90625 0 L 12.9375 0 L 12.9375 -2.296875 C 12.457031 -1.535156 11.785156 -0.921875 10.921875 -0.453125 C 10.066406 0.00390625 9.066406 0.234375 7.921875 0.234375 C 6.609375 0.234375 5.410156 -0.109375 4.328125 -0.796875 C 3.242188 -1.484375 2.382812 -2.457031 1.75 -3.71875 C 1.125 -4.988281 0.8125 -6.457031 0.8125 -8.125 Z M 12.9375 -8.09375 C 12.9375 -9.332031 12.59375 -10.304688 11.90625 -11.015625 C 11.21875 -11.734375 10.382812 -12.09375 9.40625 -12.09375 C 8.414062 -12.09375 7.578125 -11.738281 6.890625 -11.03125 C 6.203125 -10.332031 5.859375 -9.363281 5.859375 -8.125 C 5.859375 -6.882812 6.203125 -5.898438 6.890625 -5.171875 C 7.578125 -4.453125 8.414062 -4.09375 9.40625 -4.09375 C 10.382812 -4.09375 11.21875 -4.445312 11.90625 -5.15625 C 12.59375 -5.875 12.9375 -6.851562 12.9375 -8.09375 Z M 12.9375 -8.09375 "/></g></g></g><g fill="#faad3e" fill-opacity="1"><g transform="translate(160.084585, 192.264876)"><g><path d="M 8.390625 0.234375 C 6.972656 0.234375 5.710938 -0.00390625 4.609375 -0.484375 C 3.503906 -0.972656 2.632812 -1.640625 2 -2.484375 C 1.363281 -3.328125 1.003906 -4.269531 0.921875 -5.3125 L 5.828125 -5.3125 C 5.890625 -4.75 6.148438 -4.289062 6.609375 -3.9375 C 7.078125 -3.59375 7.648438 -3.421875 8.328125 -3.421875 C 8.941406 -3.421875 9.414062 -3.539062 9.75 -3.78125 C 10.09375 -4.03125 10.265625 -4.347656 10.265625 -4.734375 C 10.265625 -5.191406 10.023438 -5.53125 9.546875 -5.75 C 9.066406 -5.976562 8.285156 -6.226562 7.203125 -6.5 C 6.035156 -6.769531 5.066406 -7.054688 4.296875 -7.359375 C 3.523438 -7.660156 2.859375 -8.132812 2.296875 -8.78125 C 1.734375 -9.425781 1.453125 -10.300781 1.453125 -11.40625 C 1.453125 -12.332031 1.707031 -13.175781 2.21875 -13.9375 C 2.726562 -14.707031 3.484375 -15.3125 4.484375 -15.75 C 5.484375 -16.195312 6.664062 -16.421875 8.03125 -16.421875 C 10.0625 -16.421875 11.660156 -15.914062 12.828125 -14.90625 C 14.003906 -13.90625 14.679688 -12.570312 14.859375 -10.90625 L 10.265625 -10.90625 C 10.191406 -11.46875 9.945312 -11.910156 9.53125 -12.234375 C 9.113281 -12.566406 8.566406 -12.734375 7.890625 -12.734375 C 7.304688 -12.734375 6.859375 -12.625 6.546875 -12.40625 C 6.242188 -12.1875 6.09375 -11.878906 6.09375 -11.484375 C 6.09375 -11.023438 6.335938 -10.675781 6.828125 -10.4375 C 7.328125 -10.207031 8.097656 -9.976562 9.140625 -9.75 C 10.335938 -9.4375 11.3125 -9.128906 12.0625 -8.828125 C 12.820312 -8.535156 13.484375 -8.054688 14.046875 -7.390625 C 14.617188 -6.722656 14.914062 -5.828125 14.9375 -4.703125 C 14.9375 -3.753906 14.671875 -2.90625 14.140625 -2.15625 C 13.609375 -1.414062 12.84375 -0.832031 11.84375 -0.40625 C 10.851562 0.0195312 9.703125 0.234375 8.390625 0.234375 Z M 8.390625 0.234375 "/></g></g></g><g fill="#faad3e" fill-opacity="1"><g transform="translate(176.274823, 192.264876)"><g><path d="M 4.296875 -17.875 C 3.421875 -17.875 2.707031 -18.128906 2.15625 -18.640625 C 1.601562 -19.148438 1.328125 -19.785156 1.328125 -20.546875 C 1.328125 -21.316406 1.601562 -21.957031 2.15625 -22.46875 C 2.707031 -22.976562 3.421875 -23.234375 4.296875 -23.234375 C 5.148438 -23.234375 5.847656 -22.976562 6.390625 -22.46875 C 6.941406 -21.957031 7.21875 -21.316406 7.21875 -20.546875 C 7.21875 -19.785156 6.941406 -19.148438 6.390625 -18.640625 C 5.847656 -18.128906 5.148438 -17.875 4.296875 -17.875 Z M 6.765625 -16.1875 L 6.765625 0 L 1.796875 0 L 1.796875 -16.1875 Z M 6.765625 -16.1875 "/></g></g></g><g fill="#faad3e" fill-opacity="1"><g transform="translate(184.834174, 192.264876)"><g><path d="M 11.671875 -16.359375 C 13.554688 -16.359375 15.066406 -15.742188 16.203125 -14.515625 C 17.335938 -13.296875 17.90625 -11.609375 17.90625 -9.453125 L 17.90625 0 L 12.96875 0 L 12.96875 -8.796875 C 12.96875 -9.878906 12.6875 -10.71875 12.125 -11.3125 C 11.5625 -11.914062 10.804688 -12.21875 9.859375 -12.21875 C 8.910156 -12.21875 8.15625 -11.914062 7.59375 -11.3125 C 7.039062 -10.71875 6.765625 -9.878906 6.765625 -8.796875 L 6.765625 0 L 1.796875 0 L 1.796875 -16.1875 L 6.765625 -16.1875 L 6.765625 -14.046875 C 7.265625 -14.753906 7.9375 -15.316406 8.78125 -15.734375 C 9.632812 -16.148438 10.597656 -16.359375 11.671875 -16.359375 Z M 11.671875 -16.359375 "/></g></g></g><g fill="#faad3e" fill-opacity="1"><g transform="translate(204.390123, 192.264876)"><g><path d="M 4.296875 -17.875 C 3.421875 -17.875 2.707031 -18.128906 2.15625 -18.640625 C 1.601562 -19.148438 1.328125 -19.785156 1.328125 -20.546875 C 1.328125 -21.316406 1.601562 -21.957031 2.15625 -22.46875 C 2.707031 -22.976562 3.421875 -23.234375 4.296875 -23.234375 C 5.148438 -23.234375 5.847656 -22.976562 6.390625 -22.46875 C 6.941406 -21.957031 7.21875 -21.316406 7.21875 -20.546875 C 7.21875 -19.785156 6.941406 -19.148438 6.390625 -18.640625 C 5.847656 -18.128906 5.148438 -17.875 4.296875 -17.875 Z M 6.765625 -16.1875 L 6.765625 0 L 1.796875 0 L 1.796875 -16.1875 Z M 6.765625 -16.1875 "/></g></g></g><g fill="#faad3e" fill-opacity="1"><g transform="translate(212.949474, 192.264876)"><g><path d="M 8.390625 0.234375 C 6.972656 0.234375 5.710938 -0.00390625 4.609375 -0.484375 C 3.503906 -0.972656 2.632812 -1.640625 2 -2.484375 C 1.363281 -3.328125 1.003906 -4.269531 0.921875 -5.3125 L 5.828125 -5.3125 C 5.890625 -4.75 6.148438 -4.289062 6.609375 -3.9375 C 7.078125 -3.59375 7.648438 -3.421875 8.328125 -3.421875 C 8.941406 -3.421875 9.414062 -3.539062 9.75 -3.78125 C 10.09375 -4.03125 10.265625 -4.347656 10.265625 -4.734375 C 10.265625 -5.191406 10.023438 -5.53125 9.546875 -5.75 C 9.066406 -5.976562 8.285156 -6.226562 7.203125 -6.5 C 6.035156 -6.769531 5.066406 -7.054688 4.296875 -7.359375 C 3.523438 -7.660156 2.859375 -8.132812 2.296875 -8.78125 C 1.734375 -9.425781 1.453125 -10.300781 1.453125 -11.40625 C 1.453125 -12.332031 1.707031 -13.175781 2.21875 -13.9375 C 2.726562 -14.707031 3.484375 -15.3125 4.484375 -15.75 C 5.484375 -16.195312 6.664062 -16.421875 8.03125 -16.421875 C 10.0625 -16.421875 11.660156 -15.914062 12.828125 -14.90625 C 14.003906 -13.90625 14.679688 -12.570312 14.859375 -10.90625 L 10.265625 -10.90625 C 10.191406 -11.46875 9.945312 -11.910156 9.53125 -12.234375 C 9.113281 -12.566406 8.566406 -12.734375 7.890625 -12.734375 C 7.304688 -12.734375 6.859375 -12.625 6.546875 -12.40625 C 6.242188 -12.1875 6.09375 -11.878906 6.09375 -11.484375 C 6.09375 -11.023438 6.335938 -10.675781 6.828125 -10.4375 C 7.328125 -10.207031 8.097656 -9.976562 9.140625 -9.75 C 10.335938 -9.4375 11.3125 -9.128906 12.0625 -8.828125 C 12.820312 -8.535156 13.484375 -8.054688 14.046875 -7.390625 C 14.617188 -6.722656 14.914062 -5.828125 14.9375 -4.703125 C 14.9375 -3.753906 14.671875 -2.90625 14.140625 -2.15625 C 13.609375 -1.414062 12.84375 -0.832031 11.84375 -0.40625 C 10.851562 0.0195312 9.703125 0.234375 8.390625 0.234375 Z M 8.390625 0.234375 "/></g></g></g><g fill="#faad3e" fill-opacity="1"><g transform="translate(229.139712, 192.264876)"><g><path d="M 10.828125 -4.203125 L 10.828125 0 L 8.296875 0 C 6.492188 0 5.085938 -0.4375 4.078125 -1.3125 C 3.078125 -2.195312 2.578125 -3.632812 2.578125 -5.625 L 2.578125 -12.078125 L 0.609375 -12.078125 L 0.609375 -16.1875 L 2.578125 -16.1875 L 2.578125 -20.140625 L 7.546875 -20.140625 L 7.546875 -16.1875 L 10.796875 -16.1875 L 10.796875 -12.078125 L 7.546875 -12.078125 L 7.546875 -5.578125 C 7.546875 -5.085938 7.660156 -4.734375 7.890625 -4.515625 C 8.117188 -4.304688 8.503906 -4.203125 9.046875 -4.203125 Z M 10.828125 -4.203125 "/></g></g></g><g fill="#faad3e" fill-opacity="1"><g transform="translate(240.919705, 192.264876)"><g><path d="M 4.296875 -17.875 C 3.421875 -17.875 2.707031 -18.128906 2.15625 -18.640625 C 1.601562 -19.148438 1.328125 -19.785156 1.328125 -20.546875 C 1.328125 -21.316406 1.601562 -21.957031 2.15625 -22.46875 C 2.707031 -22.976562 3.421875 -23.234375 4.296875 -23.234375 C 5.148438 -23.234375 5.847656 -22.976562 6.390625 -22.46875 C 6.941406 -21.957031 7.21875 -21.316406 7.21875 -20.546875 C 7.21875 -19.785156 6.941406 -19.148438 6.390625 -18.640625 C 5.847656 -18.128906 5.148438 -17.875 4.296875 -17.875 Z M 6.765625 -16.1875 L 6.765625 0 L 1.796875 0 L 1.796875 -16.1875 Z M 6.765625 -16.1875 "/></g></g></g><g fill="#faad3e" fill-opacity="1"><g transform="translate(249.479056, 192.264876)"><g><path d="M 0.8125 -8.09375 C 0.8125 -9.78125 1.15625 -11.25 1.84375 -12.5 C 2.53125 -13.757812 3.488281 -14.726562 4.71875 -15.40625 C 5.945312 -16.082031 7.351562 -16.421875 8.9375 -16.421875 C 10.96875 -16.421875 12.664062 -15.890625 14.03125 -14.828125 C 15.394531 -13.765625 16.289062 -12.265625 16.71875 -10.328125 L 11.4375 -10.328125 C 10.988281 -11.566406 10.125 -12.1875 8.84375 -12.1875 C 7.9375 -12.1875 7.210938 -11.832031 6.671875 -11.125 C 6.128906 -10.414062 5.859375 -9.40625 5.859375 -8.09375 C 5.859375 -6.78125 6.128906 -5.769531 6.671875 -5.0625 C 7.210938 -4.351562 7.9375 -4 8.84375 -4 C 10.125 -4 10.988281 -4.617188 11.4375 -5.859375 L 16.71875 -5.859375 C 16.289062 -3.960938 15.390625 -2.472656 14.015625 -1.390625 C 12.640625 -0.304688 10.945312 0.234375 8.9375 0.234375 C 7.351562 0.234375 5.945312 -0.101562 4.71875 -0.78125 C 3.488281 -1.457031 2.53125 -2.425781 1.84375 -3.6875 C 1.15625 -4.945312 0.8125 -6.414062 0.8125 -8.09375 Z M 0.8125 -8.09375 "/></g></g></g><g clip-path="url(#0af868ead3)"><path fill="#b6c4ef" d="M 88.03125 162.242188 C 87.203125 162.242188 86.53125 162.914062 86.53125 163.742188 C 86.53125 164.570312 87.203125 165.242188 88.03125 165.242188 C 88.859375 165.242188 89.53125 164.570312 89.53125 163.742188 C 89.53125 162.914062 88.859375 162.242188 88.03125 162.242188 " fill-opacity="1" fill-rule="nonzero"/></g></svg>